<mxfile host="app.diagrams.net" modified="2023-12-06T10:44:46.384Z" agent="Mozilla/5.0 (Windows NT 10.0; Win64; x64) AppleWebKit/537.36 (KHTML, like Gecko) Chrome/119.0.0.0 Safari/537.36 Edg/119.0.0.0" etag="AJlFovmrsv1REmANbbxF" version="22.1.5" type="device">
  <diagram name="Страница — 1" id="tx_a1qg19bCFo-FCtHTQ">
    <mxGraphModel dx="1869" dy="569" grid="1" gridSize="10" guides="1" tooltips="1" connect="1" arrows="1" fold="1" page="1" pageScale="1" pageWidth="827" pageHeight="1169" math="0" shadow="0">
      <root>
        <mxCell id="0" />
        <mxCell id="1" parent="0" />
        <mxCell id="nmjTQRvFz5B139lZLDF_-1" value="Студент&lt;br&gt;&lt;br&gt;" style="shape=umlActor;verticalLabelPosition=bottom;verticalAlign=top;html=1;outlineConnect=0;" vertex="1" parent="1">
          <mxGeometry x="399" y="60" width="30" height="60" as="geometry" />
        </mxCell>
        <mxCell id="nmjTQRvFz5B139lZLDF_-2" value="" style="endArrow=classic;html=1;rounded=0;exitX=1;exitY=0.3333333333333333;exitDx=0;exitDy=0;exitPerimeter=0;" edge="1" parent="1" source="nmjTQRvFz5B139lZLDF_-1" target="nmjTQRvFz5B139lZLDF_-10">
          <mxGeometry width="50" height="50" relative="1" as="geometry">
            <mxPoint x="460" y="100" as="sourcePoint" />
            <mxPoint x="510" y="80" as="targetPoint" />
          </mxGeometry>
        </mxCell>
        <mxCell id="nmjTQRvFz5B139lZLDF_-3" value="" style="endArrow=classic;html=1;rounded=0;exitX=0;exitY=0.3333333333333333;exitDx=0;exitDy=0;exitPerimeter=0;" edge="1" parent="1" source="nmjTQRvFz5B139lZLDF_-1" target="nmjTQRvFz5B139lZLDF_-4">
          <mxGeometry width="50" height="50" relative="1" as="geometry">
            <mxPoint x="390" y="230" as="sourcePoint" />
            <mxPoint x="320" y="80" as="targetPoint" />
          </mxGeometry>
        </mxCell>
        <mxCell id="nmjTQRvFz5B139lZLDF_-4" value="Зарегистрироваться" style="ellipse;whiteSpace=wrap;html=1;" vertex="1" parent="1">
          <mxGeometry x="180" y="40" width="120" height="80" as="geometry" />
        </mxCell>
        <mxCell id="nmjTQRvFz5B139lZLDF_-6" value="" style="endArrow=classic;html=1;rounded=0;" edge="1" parent="1" target="nmjTQRvFz5B139lZLDF_-7">
          <mxGeometry width="50" height="50" relative="1" as="geometry">
            <mxPoint x="400" y="80" as="sourcePoint" />
            <mxPoint x="300" y="140" as="targetPoint" />
          </mxGeometry>
        </mxCell>
        <mxCell id="nmjTQRvFz5B139lZLDF_-7" value="Войти" style="ellipse;whiteSpace=wrap;html=1;" vertex="1" parent="1">
          <mxGeometry x="200" y="130" width="120" height="80" as="geometry" />
        </mxCell>
        <mxCell id="nmjTQRvFz5B139lZLDF_-8" value="" style="endArrow=classic;html=1;rounded=0;exitX=1;exitY=0.3333333333333333;exitDx=0;exitDy=0;exitPerimeter=0;" edge="1" parent="1" source="nmjTQRvFz5B139lZLDF_-1" target="nmjTQRvFz5B139lZLDF_-9">
          <mxGeometry width="50" height="50" relative="1" as="geometry">
            <mxPoint x="460" y="110" as="sourcePoint" />
            <mxPoint x="510" y="120" as="targetPoint" />
            <Array as="points" />
          </mxGeometry>
        </mxCell>
        <mxCell id="nmjTQRvFz5B139lZLDF_-9" value="Просмотр преподавательского состава" style="ellipse;whiteSpace=wrap;html=1;" vertex="1" parent="1">
          <mxGeometry x="500" y="140" width="120" height="80" as="geometry" />
        </mxCell>
        <mxCell id="nmjTQRvFz5B139lZLDF_-10" value="Просмотр специальностей" style="ellipse;whiteSpace=wrap;html=1;" vertex="1" parent="1">
          <mxGeometry x="510" y="30" width="120" height="80" as="geometry" />
        </mxCell>
        <mxCell id="nmjTQRvFz5B139lZLDF_-12" value="Авторизованный&amp;nbsp;&lt;br&gt;" style="shape=umlActor;verticalLabelPosition=bottom;verticalAlign=top;html=1;outlineConnect=0;" vertex="1" parent="1">
          <mxGeometry x="399" y="280" width="30" height="60" as="geometry" />
        </mxCell>
        <mxCell id="nmjTQRvFz5B139lZLDF_-13" value="" style="endArrow=classic;html=1;rounded=0;exitX=0.5;exitY=0;exitDx=0;exitDy=0;exitPerimeter=0;" edge="1" parent="1" source="nmjTQRvFz5B139lZLDF_-12" target="nmjTQRvFz5B139lZLDF_-1">
          <mxGeometry width="50" height="50" relative="1" as="geometry">
            <mxPoint x="414" y="195" as="sourcePoint" />
            <mxPoint x="464" y="145" as="targetPoint" />
            <Array as="points" />
          </mxGeometry>
        </mxCell>
        <mxCell id="nmjTQRvFz5B139lZLDF_-14" value="" style="endArrow=classic;html=1;rounded=0;exitX=0;exitY=0.3333333333333333;exitDx=0;exitDy=0;exitPerimeter=0;" edge="1" parent="1" source="nmjTQRvFz5B139lZLDF_-12" target="nmjTQRvFz5B139lZLDF_-16">
          <mxGeometry width="50" height="50" relative="1" as="geometry">
            <mxPoint x="300" y="330" as="sourcePoint" />
            <mxPoint x="300" y="300" as="targetPoint" />
          </mxGeometry>
        </mxCell>
        <mxCell id="nmjTQRvFz5B139lZLDF_-15" value="" style="endArrow=classic;html=1;rounded=0;exitX=1;exitY=0.3333333333333333;exitDx=0;exitDy=0;exitPerimeter=0;" edge="1" parent="1" source="nmjTQRvFz5B139lZLDF_-12" target="nmjTQRvFz5B139lZLDF_-17">
          <mxGeometry width="50" height="50" relative="1" as="geometry">
            <mxPoint x="520" y="310" as="sourcePoint" />
            <mxPoint x="520" y="300" as="targetPoint" />
          </mxGeometry>
        </mxCell>
        <mxCell id="nmjTQRvFz5B139lZLDF_-16" value="Редактировать профиль" style="ellipse;whiteSpace=wrap;html=1;" vertex="1" parent="1">
          <mxGeometry x="190" y="260" width="120" height="80" as="geometry" />
        </mxCell>
        <mxCell id="nmjTQRvFz5B139lZLDF_-17" value="Просмотр расписания занятий&amp;nbsp;" style="ellipse;whiteSpace=wrap;html=1;" vertex="1" parent="1">
          <mxGeometry x="530" y="260" width="120" height="80" as="geometry" />
        </mxCell>
        <mxCell id="nmjTQRvFz5B139lZLDF_-20" value="&amp;lt;&amp;lt;include&amp;gt;&amp;gt;" style="endArrow=open;endSize=12;dashed=1;html=1;rounded=0;exitX=0;exitY=0.5;exitDx=0;exitDy=0;" edge="1" parent="1" source="nmjTQRvFz5B139lZLDF_-16" target="nmjTQRvFz5B139lZLDF_-22">
          <mxGeometry width="160" relative="1" as="geometry">
            <mxPoint x="290" y="410" as="sourcePoint" />
            <mxPoint x="110" y="300" as="targetPoint" />
          </mxGeometry>
        </mxCell>
        <mxCell id="nmjTQRvFz5B139lZLDF_-21" value="&amp;lt;&amp;lt;include&amp;gt;&amp;gt;" style="endArrow=open;endSize=12;dashed=1;html=1;rounded=0;exitX=0.5;exitY=1;exitDx=0;exitDy=0;" edge="1" parent="1" source="nmjTQRvFz5B139lZLDF_-16" target="nmjTQRvFz5B139lZLDF_-23">
          <mxGeometry x="-0.1667" width="160" relative="1" as="geometry">
            <mxPoint x="180" y="500" as="sourcePoint" />
            <mxPoint x="250" y="460" as="targetPoint" />
            <Array as="points">
              <mxPoint x="250" y="420" />
            </Array>
            <mxPoint as="offset" />
          </mxGeometry>
        </mxCell>
        <mxCell id="nmjTQRvFz5B139lZLDF_-22" value="Удалить&lt;br&gt;профиль" style="ellipse;whiteSpace=wrap;html=1;" vertex="1" parent="1">
          <mxGeometry x="-10" y="260" width="120" height="80" as="geometry" />
        </mxCell>
        <mxCell id="nmjTQRvFz5B139lZLDF_-23" value="Выйти и аккаунта" style="ellipse;whiteSpace=wrap;html=1;" vertex="1" parent="1">
          <mxGeometry x="190" y="420" width="120" height="80" as="geometry" />
        </mxCell>
        <mxCell id="nmjTQRvFz5B139lZLDF_-24" value="Преподаватель&amp;nbsp;&lt;br&gt;" style="shape=umlActor;verticalLabelPosition=bottom;verticalAlign=top;html=1;outlineConnect=0;" vertex="1" parent="1">
          <mxGeometry x="399" y="555" width="30" height="60" as="geometry" />
        </mxCell>
        <mxCell id="nmjTQRvFz5B139lZLDF_-25" value="" style="endArrow=classic;html=1;rounded=0;exitX=0.5;exitY=0;exitDx=0;exitDy=0;exitPerimeter=0;" edge="1" parent="1" source="nmjTQRvFz5B139lZLDF_-24" target="nmjTQRvFz5B139lZLDF_-12">
          <mxGeometry width="50" height="50" relative="1" as="geometry">
            <mxPoint x="390" y="410" as="sourcePoint" />
            <mxPoint x="440" y="360" as="targetPoint" />
          </mxGeometry>
        </mxCell>
        <mxCell id="nmjTQRvFz5B139lZLDF_-26" value="" style="endArrow=classic;html=1;rounded=0;exitX=0;exitY=0.3333333333333333;exitDx=0;exitDy=0;exitPerimeter=0;entryX=1;entryY=0.5;entryDx=0;entryDy=0;" edge="1" parent="1" source="nmjTQRvFz5B139lZLDF_-24" target="nmjTQRvFz5B139lZLDF_-28">
          <mxGeometry width="50" height="50" relative="1" as="geometry">
            <mxPoint x="280" y="590" as="sourcePoint" />
            <mxPoint x="300" y="580" as="targetPoint" />
          </mxGeometry>
        </mxCell>
        <mxCell id="nmjTQRvFz5B139lZLDF_-27" value="" style="endArrow=classic;html=1;rounded=0;exitX=1;exitY=0.3333333333333333;exitDx=0;exitDy=0;exitPerimeter=0;" edge="1" parent="1" source="nmjTQRvFz5B139lZLDF_-24">
          <mxGeometry width="50" height="50" relative="1" as="geometry">
            <mxPoint x="500" y="590" as="sourcePoint" />
            <mxPoint x="530" y="570" as="targetPoint" />
          </mxGeometry>
        </mxCell>
        <mxCell id="nmjTQRvFz5B139lZLDF_-28" value="Заполнить&amp;nbsp; журнал" style="ellipse;whiteSpace=wrap;html=1;" vertex="1" parent="1">
          <mxGeometry x="150" y="535" width="120" height="80" as="geometry" />
        </mxCell>
        <mxCell id="nmjTQRvFz5B139lZLDF_-29" value="&amp;lt;&amp;lt;include&amp;gt;&amp;gt;" style="endArrow=open;endSize=12;dashed=1;html=1;rounded=0;exitX=0;exitY=0.5;exitDx=0;exitDy=0;entryX=1.008;entryY=0.598;entryDx=0;entryDy=0;entryPerimeter=0;" edge="1" parent="1" source="nmjTQRvFz5B139lZLDF_-28" target="nmjTQRvFz5B139lZLDF_-30">
          <mxGeometry x="-0.197" y="-3" width="160" relative="1" as="geometry">
            <mxPoint x="150" y="370" as="sourcePoint" />
            <mxPoint x="50" y="570" as="targetPoint" />
            <Array as="points" />
            <mxPoint as="offset" />
          </mxGeometry>
        </mxCell>
        <mxCell id="nmjTQRvFz5B139lZLDF_-30" value="Поставить оценки" style="ellipse;whiteSpace=wrap;html=1;" vertex="1" parent="1">
          <mxGeometry x="-70" y="530" width="120" height="80" as="geometry" />
        </mxCell>
      </root>
    </mxGraphModel>
  </diagram>
</mxfile>
